<?xml version="1.0" encoding="utf-8"?>
<svg xmlns="http://www.w3.org/2000/svg" xmlns:xlink="http://www.w3.org/1999/xlink" width="600" height="400" viewBox="0 0 2400 1600">
<defs>
  <clipPath id="clip330">
    <rect x="0" y="0" width="2400" height="1600"/>
  </clipPath>
</defs>
<path clip-path="url(#clip330)" d="M0 1600 L2400 1600 L2400 0 L0 0  Z" fill="#ffffff" fill-rule="evenodd" fill-opacity="1"/>
<defs>
  <clipPath id="clip331">
    <rect x="480" y="0" width="1681" height="1600"/>
  </clipPath>
</defs>
<path clip-path="url(#clip330)" d="M262.551 1423.18 L2352.76 1423.18 L2352.76 47.2441 L262.551 47.2441  Z" fill="#ffffff" fill-rule="evenodd" fill-opacity="1"/>
<defs>
  <clipPath id="clip332">
    <rect x="262" y="47" width="2091" height="1377"/>
  </clipPath>
</defs>
<polyline clip-path="url(#clip332)" style="stroke:#000000; stroke-linecap:round; stroke-linejoin:round; stroke-width:2; stroke-opacity:0.1; fill:none" points="319.624,1423.18 319.624,47.2441 "/>
<polyline clip-path="url(#clip332)" style="stroke:#000000; stroke-linecap:round; stroke-linejoin:round; stroke-width:2; stroke-opacity:0.1; fill:none" points="736.514,1423.18 736.514,47.2441 "/>
<polyline clip-path="url(#clip332)" style="stroke:#000000; stroke-linecap:round; stroke-linejoin:round; stroke-width:2; stroke-opacity:0.1; fill:none" points="1153.4,1423.18 1153.4,47.2441 "/>
<polyline clip-path="url(#clip332)" style="stroke:#000000; stroke-linecap:round; stroke-linejoin:round; stroke-width:2; stroke-opacity:0.1; fill:none" points="1570.29,1423.18 1570.29,47.2441 "/>
<polyline clip-path="url(#clip332)" style="stroke:#000000; stroke-linecap:round; stroke-linejoin:round; stroke-width:2; stroke-opacity:0.1; fill:none" points="1987.18,1423.18 1987.18,47.2441 "/>
<polyline clip-path="url(#clip330)" style="stroke:#000000; stroke-linecap:round; stroke-linejoin:round; stroke-width:4; stroke-opacity:1; fill:none" points="262.551,1423.18 2352.76,1423.18 "/>
<polyline clip-path="url(#clip330)" style="stroke:#000000; stroke-linecap:round; stroke-linejoin:round; stroke-width:4; stroke-opacity:1; fill:none" points="319.624,1423.18 319.624,1404.28 "/>
<polyline clip-path="url(#clip330)" style="stroke:#000000; stroke-linecap:round; stroke-linejoin:round; stroke-width:4; stroke-opacity:1; fill:none" points="736.514,1423.18 736.514,1404.28 "/>
<polyline clip-path="url(#clip330)" style="stroke:#000000; stroke-linecap:round; stroke-linejoin:round; stroke-width:4; stroke-opacity:1; fill:none" points="1153.4,1423.18 1153.4,1404.28 "/>
<polyline clip-path="url(#clip330)" style="stroke:#000000; stroke-linecap:round; stroke-linejoin:round; stroke-width:4; stroke-opacity:1; fill:none" points="1570.29,1423.18 1570.29,1404.28 "/>
<polyline clip-path="url(#clip330)" style="stroke:#000000; stroke-linecap:round; stroke-linejoin:round; stroke-width:4; stroke-opacity:1; fill:none" points="1987.18,1423.18 1987.18,1404.28 "/>
<path clip-path="url(#clip330)" d="M319.624 1454.1 Q316.012 1454.1 314.184 1457.66 Q312.378 1461.2 312.378 1468.33 Q312.378 1475.44 314.184 1479.01 Q316.012 1482.55 319.624 1482.55 Q323.258 1482.55 325.063 1479.01 Q326.892 1475.44 326.892 1468.33 Q326.892 1461.2 325.063 1457.66 Q323.258 1454.1 319.624 1454.1 M319.624 1450.39 Q325.434 1450.39 328.489 1455 Q331.568 1459.58 331.568 1468.33 Q331.568 1477.06 328.489 1481.67 Q325.434 1486.25 319.624 1486.25 Q313.813 1486.25 310.735 1481.67 Q307.679 1477.06 307.679 1468.33 Q307.679 1459.58 310.735 1455 Q313.813 1450.39 319.624 1450.39 Z" fill="#000000" fill-rule="nonzero" fill-opacity="1" /><path clip-path="url(#clip330)" d="M700.206 1481.64 L716.526 1481.64 L716.526 1485.58 L694.581 1485.58 L694.581 1481.64 Q697.243 1478.89 701.827 1474.26 Q706.433 1469.61 707.614 1468.27 Q709.859 1465.74 710.739 1464.01 Q711.641 1462.25 711.641 1460.56 Q711.641 1457.8 709.697 1456.07 Q707.776 1454.33 704.674 1454.33 Q702.475 1454.33 700.021 1455.09 Q697.59 1455.86 694.813 1457.41 L694.813 1452.69 Q697.637 1451.55 700.09 1450.97 Q702.544 1450.39 704.581 1450.39 Q709.951 1450.39 713.146 1453.08 Q716.34 1455.77 716.34 1460.26 Q716.34 1462.39 715.53 1464.31 Q714.743 1466.2 712.637 1468.8 Q712.058 1469.47 708.956 1472.69 Q705.854 1475.88 700.206 1481.64 Z" fill="#000000" fill-rule="nonzero" fill-opacity="1" /><path clip-path="url(#clip330)" d="M736.34 1454.1 Q732.729 1454.1 730.9 1457.66 Q729.095 1461.2 729.095 1468.33 Q729.095 1475.44 730.9 1479.01 Q732.729 1482.55 736.34 1482.55 Q739.974 1482.55 741.78 1479.01 Q743.609 1475.44 743.609 1468.33 Q743.609 1461.2 741.78 1457.66 Q739.974 1454.1 736.34 1454.1 M736.34 1450.39 Q742.15 1450.39 745.206 1455 Q748.285 1459.58 748.285 1468.33 Q748.285 1477.06 745.206 1481.67 Q742.15 1486.25 736.34 1486.25 Q730.53 1486.25 727.451 1481.67 Q724.396 1477.06 724.396 1468.33 Q724.396 1459.58 727.451 1455 Q730.53 1450.39 736.34 1450.39 Z" fill="#000000" fill-rule="nonzero" fill-opacity="1" /><path clip-path="url(#clip330)" d="M766.502 1454.1 Q762.891 1454.1 761.062 1457.66 Q759.257 1461.2 759.257 1468.33 Q759.257 1475.44 761.062 1479.01 Q762.891 1482.55 766.502 1482.55 Q770.136 1482.55 771.942 1479.01 Q773.771 1475.44 773.771 1468.33 Q773.771 1461.2 771.942 1457.66 Q770.136 1454.1 766.502 1454.1 M766.502 1450.39 Q772.312 1450.39 775.368 1455 Q778.446 1459.58 778.446 1468.33 Q778.446 1477.06 775.368 1481.67 Q772.312 1486.25 766.502 1486.25 Q760.692 1486.25 757.613 1481.67 Q754.558 1477.06 754.558 1468.33 Q754.558 1459.58 757.613 1455 Q760.692 1450.39 766.502 1450.39 Z" fill="#000000" fill-rule="nonzero" fill-opacity="1" /><path clip-path="url(#clip330)" d="M1126.49 1455.09 L1114.69 1473.54 L1126.49 1473.54 L1126.49 1455.09 M1125.27 1451.02 L1131.15 1451.02 L1131.15 1473.54 L1136.08 1473.54 L1136.08 1477.43 L1131.15 1477.43 L1131.15 1485.58 L1126.49 1485.58 L1126.49 1477.43 L1110.89 1477.43 L1110.89 1472.92 L1125.27 1451.02 Z" fill="#000000" fill-rule="nonzero" fill-opacity="1" /><path clip-path="url(#clip330)" d="M1153.81 1454.1 Q1150.2 1454.1 1148.37 1457.66 Q1146.56 1461.2 1146.56 1468.33 Q1146.56 1475.44 1148.37 1479.01 Q1150.2 1482.55 1153.81 1482.55 Q1157.44 1482.55 1159.25 1479.01 Q1161.08 1475.44 1161.08 1468.33 Q1161.08 1461.2 1159.25 1457.66 Q1157.44 1454.1 1153.81 1454.1 M1153.81 1450.39 Q1159.62 1450.39 1162.67 1455 Q1165.75 1459.58 1165.75 1468.33 Q1165.75 1477.06 1162.67 1481.67 Q1159.62 1486.25 1153.81 1486.25 Q1148 1486.25 1144.92 1481.67 Q1141.86 1477.06 1141.86 1468.33 Q1141.86 1459.58 1144.92 1455 Q1148 1450.39 1153.81 1450.39 Z" fill="#000000" fill-rule="nonzero" fill-opacity="1" /><path clip-path="url(#clip330)" d="M1183.97 1454.1 Q1180.36 1454.1 1178.53 1457.66 Q1176.73 1461.2 1176.73 1468.33 Q1176.73 1475.44 1178.53 1479.01 Q1180.36 1482.55 1183.97 1482.55 Q1187.61 1482.55 1189.41 1479.01 Q1191.24 1475.44 1191.24 1468.33 Q1191.24 1461.2 1189.41 1457.66 Q1187.61 1454.1 1183.97 1454.1 M1183.97 1450.39 Q1189.78 1450.39 1192.84 1455 Q1195.92 1459.58 1195.92 1468.33 Q1195.92 1477.06 1192.84 1481.67 Q1189.78 1486.25 1183.97 1486.25 Q1178.16 1486.25 1175.08 1481.67 Q1172.03 1477.06 1172.03 1468.33 Q1172.03 1459.58 1175.08 1455 Q1178.16 1450.39 1183.97 1450.39 Z" fill="#000000" fill-rule="nonzero" fill-opacity="1" /><path clip-path="url(#clip330)" d="M1540.62 1466.44 Q1537.47 1466.44 1535.62 1468.59 Q1533.79 1470.74 1533.79 1474.49 Q1533.79 1478.22 1535.62 1480.39 Q1537.47 1482.55 1540.62 1482.55 Q1543.77 1482.55 1545.6 1480.39 Q1547.45 1478.22 1547.45 1474.49 Q1547.45 1470.74 1545.6 1468.59 Q1543.77 1466.44 1540.62 1466.44 M1549.9 1451.78 L1549.9 1456.04 Q1548.14 1455.21 1546.34 1454.77 Q1544.55 1454.33 1542.79 1454.33 Q1538.17 1454.33 1535.71 1457.45 Q1533.28 1460.58 1532.93 1466.9 Q1534.3 1464.89 1536.36 1463.82 Q1538.42 1462.73 1540.9 1462.73 Q1546.1 1462.73 1549.11 1465.9 Q1552.15 1469.05 1552.15 1474.49 Q1552.15 1479.82 1549 1483.03 Q1545.85 1486.25 1540.62 1486.25 Q1534.62 1486.25 1531.45 1481.67 Q1528.28 1477.06 1528.28 1468.33 Q1528.28 1460.14 1532.17 1455.28 Q1536.06 1450.39 1542.61 1450.39 Q1544.37 1450.39 1546.15 1450.74 Q1547.96 1451.09 1549.9 1451.78 Z" fill="#000000" fill-rule="nonzero" fill-opacity="1" /><path clip-path="url(#clip330)" d="M1570.2 1454.1 Q1566.59 1454.1 1564.76 1457.66 Q1562.96 1461.2 1562.96 1468.33 Q1562.96 1475.44 1564.76 1479.01 Q1566.59 1482.55 1570.2 1482.55 Q1573.84 1482.55 1575.64 1479.01 Q1577.47 1475.44 1577.47 1468.33 Q1577.47 1461.2 1575.64 1457.66 Q1573.84 1454.1 1570.2 1454.1 M1570.2 1450.39 Q1576.01 1450.39 1579.07 1455 Q1582.15 1459.58 1582.15 1468.33 Q1582.15 1477.06 1579.07 1481.67 Q1576.01 1486.25 1570.2 1486.25 Q1564.39 1486.25 1561.31 1481.67 Q1558.26 1477.06 1558.26 1468.33 Q1558.26 1459.58 1561.31 1455 Q1564.39 1450.39 1570.2 1450.39 Z" fill="#000000" fill-rule="nonzero" fill-opacity="1" /><path clip-path="url(#clip330)" d="M1600.36 1454.1 Q1596.75 1454.1 1594.92 1457.66 Q1593.12 1461.2 1593.12 1468.33 Q1593.12 1475.44 1594.92 1479.01 Q1596.75 1482.55 1600.36 1482.55 Q1604 1482.55 1605.8 1479.01 Q1607.63 1475.44 1607.63 1468.33 Q1607.63 1461.2 1605.8 1457.66 Q1604 1454.1 1600.36 1454.1 M1600.36 1450.39 Q1606.17 1450.39 1609.23 1455 Q1612.31 1459.58 1612.31 1468.33 Q1612.31 1477.06 1609.23 1481.67 Q1606.17 1486.25 1600.36 1486.25 Q1594.55 1486.25 1591.47 1481.67 Q1588.42 1477.06 1588.42 1468.33 Q1588.42 1459.58 1591.47 1455 Q1594.55 1450.39 1600.36 1450.39 Z" fill="#000000" fill-rule="nonzero" fill-opacity="1" /><path clip-path="url(#clip330)" d="M1956.98 1469.17 Q1953.64 1469.17 1951.72 1470.95 Q1949.82 1472.73 1949.82 1475.86 Q1949.82 1478.98 1951.72 1480.77 Q1953.64 1482.55 1956.98 1482.55 Q1960.31 1482.55 1962.23 1480.77 Q1964.15 1478.96 1964.15 1475.86 Q1964.15 1472.73 1962.23 1470.95 Q1960.33 1469.17 1956.98 1469.17 M1952.3 1467.18 Q1949.29 1466.44 1947.6 1464.38 Q1945.94 1462.32 1945.94 1459.35 Q1945.94 1455.21 1948.87 1452.8 Q1951.84 1450.39 1956.98 1450.39 Q1962.14 1450.39 1965.08 1452.8 Q1968.02 1455.21 1968.02 1459.35 Q1968.02 1462.32 1966.33 1464.38 Q1964.66 1466.44 1961.68 1467.18 Q1965.06 1467.96 1966.93 1470.26 Q1968.83 1472.55 1968.83 1475.86 Q1968.83 1480.88 1965.75 1483.57 Q1962.69 1486.25 1956.98 1486.25 Q1951.26 1486.25 1948.18 1483.57 Q1945.12 1480.88 1945.12 1475.86 Q1945.12 1472.55 1947.02 1470.26 Q1948.92 1467.96 1952.3 1467.18 M1950.59 1459.79 Q1950.59 1462.48 1952.25 1463.98 Q1953.94 1465.49 1956.98 1465.49 Q1959.99 1465.49 1961.68 1463.98 Q1963.39 1462.48 1963.39 1459.79 Q1963.39 1457.11 1961.68 1455.6 Q1959.99 1454.1 1956.98 1454.1 Q1953.94 1454.1 1952.25 1455.6 Q1950.59 1457.11 1950.59 1459.79 Z" fill="#000000" fill-rule="nonzero" fill-opacity="1" /><path clip-path="url(#clip330)" d="M1987.14 1454.1 Q1983.53 1454.1 1981.7 1457.66 Q1979.89 1461.2 1979.89 1468.33 Q1979.89 1475.44 1981.7 1479.01 Q1983.53 1482.55 1987.14 1482.55 Q1990.77 1482.55 1992.58 1479.01 Q1994.41 1475.44 1994.41 1468.33 Q1994.41 1461.2 1992.58 1457.66 Q1990.77 1454.1 1987.14 1454.1 M1987.14 1450.39 Q1992.95 1450.39 1996 1455 Q1999.08 1459.58 1999.08 1468.33 Q1999.08 1477.06 1996 1481.67 Q1992.95 1486.25 1987.14 1486.25 Q1981.33 1486.25 1978.25 1481.67 Q1975.19 1477.06 1975.19 1468.33 Q1975.19 1459.58 1978.25 1455 Q1981.33 1450.39 1987.14 1450.39 Z" fill="#000000" fill-rule="nonzero" fill-opacity="1" /><path clip-path="url(#clip330)" d="M2017.3 1454.1 Q2013.69 1454.1 2011.86 1457.66 Q2010.06 1461.2 2010.06 1468.33 Q2010.06 1475.44 2011.86 1479.01 Q2013.69 1482.55 2017.3 1482.55 Q2020.93 1482.55 2022.74 1479.01 Q2024.57 1475.44 2024.57 1468.33 Q2024.57 1461.2 2022.74 1457.66 Q2020.93 1454.1 2017.3 1454.1 M2017.3 1450.39 Q2023.11 1450.39 2026.17 1455 Q2029.24 1459.58 2029.24 1468.33 Q2029.24 1477.06 2026.17 1481.67 Q2023.11 1486.25 2017.3 1486.25 Q2011.49 1486.25 2008.41 1481.67 Q2005.36 1477.06 2005.36 1468.33 Q2005.36 1459.58 2008.41 1455 Q2011.49 1450.39 2017.3 1450.39 Z" fill="#000000" fill-rule="nonzero" fill-opacity="1" /><path clip-path="url(#clip330)" d="M918.47 1520.52 L927.128 1520.52 L948.198 1560.28 L948.198 1520.52 L954.436 1520.52 L954.436 1568.04 L945.779 1568.04 L924.709 1528.29 L924.709 1568.04 L918.47 1568.04 L918.47 1520.52 Z" fill="#000000" fill-rule="nonzero" fill-opacity="1" /><path clip-path="url(#clip330)" d="M966.372 1553.98 L966.372 1532.4 L972.229 1532.4 L972.229 1553.75 Q972.229 1558.81 974.202 1561.36 Q976.175 1563.87 980.122 1563.87 Q984.864 1563.87 987.602 1560.85 Q990.371 1557.83 990.371 1552.61 L990.371 1532.4 L996.227 1532.4 L996.227 1568.04 L990.371 1568.04 L990.371 1562.57 Q988.238 1565.82 985.406 1567.41 Q982.605 1568.97 978.881 1568.97 Q972.738 1568.97 969.555 1565.15 Q966.372 1561.33 966.372 1553.98 M981.109 1531.54 L981.109 1531.54 M985.469 1515.91 L991.803 1515.91 L981.427 1527.88 L976.557 1527.88 L985.469 1515.91 Z" fill="#000000" fill-rule="nonzero" fill-opacity="1" /><path clip-path="url(#clip330)" d="M1036.04 1539.24 Q1038.24 1535.29 1041.3 1533.41 Q1044.35 1531.54 1048.49 1531.54 Q1054.06 1531.54 1057.08 1535.45 Q1060.11 1539.33 1060.11 1546.53 L1060.11 1568.04 L1054.22 1568.04 L1054.22 1546.72 Q1054.22 1541.59 1052.4 1539.11 Q1050.59 1536.63 1046.87 1536.63 Q1042.31 1536.63 1039.67 1539.65 Q1037.03 1542.68 1037.03 1547.9 L1037.03 1568.04 L1031.14 1568.04 L1031.14 1546.72 Q1031.14 1541.56 1029.33 1539.11 Q1027.51 1536.63 1023.73 1536.63 Q1019.24 1536.63 1016.6 1539.68 Q1013.96 1542.71 1013.96 1547.9 L1013.96 1568.04 L1008.07 1568.04 L1008.07 1532.4 L1013.96 1532.4 L1013.96 1537.93 Q1015.96 1534.66 1018.76 1533.1 Q1021.56 1531.54 1025.41 1531.54 Q1029.3 1531.54 1032 1533.51 Q1034.74 1535.48 1036.04 1539.24 Z" fill="#000000" fill-rule="nonzero" fill-opacity="1" /><path clip-path="url(#clip330)" d="M1102.28 1548.76 L1102.28 1551.62 L1075.35 1551.62 Q1075.73 1557.67 1078.98 1560.85 Q1082.26 1564 1088.08 1564 Q1091.46 1564 1094.61 1563.17 Q1097.79 1562.35 1100.91 1560.69 L1100.91 1566.23 Q1097.76 1567.57 1094.45 1568.27 Q1091.14 1568.97 1087.73 1568.97 Q1079.2 1568.97 1074.21 1564 Q1069.24 1559.04 1069.24 1550.57 Q1069.24 1541.82 1073.95 1536.69 Q1078.7 1531.54 1086.72 1531.54 Q1093.91 1531.54 1098.08 1536.18 Q1102.28 1540.8 1102.28 1548.76 M1096.42 1547.04 Q1096.36 1542.23 1093.72 1539.37 Q1091.11 1536.5 1086.78 1536.5 Q1081.88 1536.5 1078.92 1539.27 Q1075.99 1542.04 1075.54 1547.07 L1096.42 1547.04 Z" fill="#000000" fill-rule="nonzero" fill-opacity="1" /><path clip-path="url(#clip330)" d="M1132.55 1537.87 Q1131.56 1537.3 1130.38 1537.04 Q1129.24 1536.76 1127.84 1536.76 Q1122.87 1536.76 1120.2 1540 Q1117.56 1543.22 1117.56 1549.27 L1117.56 1568.04 L1111.67 1568.04 L1111.67 1532.4 L1117.56 1532.4 L1117.56 1537.93 Q1119.4 1534.69 1122.36 1533.13 Q1125.32 1531.54 1129.56 1531.54 Q1130.16 1531.54 1130.89 1531.63 Q1131.63 1531.7 1132.52 1531.85 L1132.55 1537.87 Z" fill="#000000" fill-rule="nonzero" fill-opacity="1" /><path clip-path="url(#clip330)" d="M1151.07 1536.5 Q1146.36 1536.5 1143.63 1540.19 Q1140.89 1543.85 1140.89 1550.25 Q1140.89 1556.65 1143.59 1560.34 Q1146.33 1564 1151.07 1564 Q1155.75 1564 1158.49 1560.31 Q1161.23 1556.62 1161.23 1550.25 Q1161.23 1543.92 1158.49 1540.23 Q1155.75 1536.5 1151.07 1536.5 M1151.07 1531.54 Q1158.71 1531.54 1163.07 1536.5 Q1167.43 1541.47 1167.43 1550.25 Q1167.43 1559 1163.07 1564 Q1158.71 1568.97 1151.07 1568.97 Q1143.4 1568.97 1139.04 1564 Q1134.71 1559 1134.71 1550.25 Q1134.71 1541.47 1139.04 1536.5 Q1143.4 1531.54 1151.07 1531.54 Z" fill="#000000" fill-rule="nonzero" fill-opacity="1" /><path clip-path="url(#clip330)" d="M1199.87 1533.45 L1199.87 1538.98 Q1197.38 1537.71 1194.71 1537.07 Q1192.04 1536.44 1189.17 1536.44 Q1184.81 1536.44 1182.62 1537.77 Q1180.45 1539.11 1180.45 1541.79 Q1180.45 1543.82 1182.01 1545 Q1183.57 1546.15 1188.28 1547.2 L1190.29 1547.64 Q1196.52 1548.98 1199.13 1551.43 Q1201.78 1553.85 1201.78 1558.21 Q1201.78 1563.17 1197.83 1566.07 Q1193.91 1568.97 1187.04 1568.97 Q1184.17 1568.97 1181.06 1568.39 Q1177.97 1567.85 1174.53 1566.74 L1174.53 1560.69 Q1177.78 1562.38 1180.93 1563.24 Q1184.08 1564.07 1187.17 1564.07 Q1191.3 1564.07 1193.53 1562.66 Q1195.76 1561.23 1195.76 1558.65 Q1195.76 1556.27 1194.14 1554.99 Q1192.55 1553.72 1187.1 1552.54 L1185.07 1552.07 Q1179.62 1550.92 1177.2 1548.56 Q1174.79 1546.18 1174.79 1542.04 Q1174.79 1537.01 1178.35 1534.27 Q1181.91 1531.54 1188.47 1531.54 Q1191.72 1531.54 1194.58 1532.01 Q1197.45 1532.49 1199.87 1533.45 Z" fill="#000000" fill-rule="nonzero" fill-opacity="1" /><path clip-path="url(#clip330)" d="M1255.28 1537.81 L1255.28 1518.52 L1261.14 1518.52 L1261.14 1568.04 L1255.28 1568.04 L1255.28 1562.7 Q1253.43 1565.88 1250.6 1567.44 Q1247.8 1568.97 1243.85 1568.97 Q1237.39 1568.97 1233.32 1563.81 Q1229.28 1558.65 1229.28 1550.25 Q1229.28 1541.85 1233.32 1536.69 Q1237.39 1531.54 1243.85 1531.54 Q1247.8 1531.54 1250.6 1533.1 Q1253.43 1534.62 1255.28 1537.81 M1235.32 1550.25 Q1235.32 1556.71 1237.96 1560.4 Q1240.64 1564.07 1245.29 1564.07 Q1249.93 1564.07 1252.61 1560.4 Q1255.28 1556.71 1255.28 1550.25 Q1255.28 1543.79 1252.61 1540.13 Q1249.93 1536.44 1245.29 1536.44 Q1240.64 1536.44 1237.96 1540.13 Q1235.32 1543.79 1235.32 1550.25 Z" fill="#000000" fill-rule="nonzero" fill-opacity="1" /><path clip-path="url(#clip330)" d="M1303.69 1548.76 L1303.69 1551.62 L1276.76 1551.62 Q1277.15 1557.67 1280.39 1560.85 Q1283.67 1564 1289.5 1564 Q1292.87 1564 1296.02 1563.17 Q1299.2 1562.35 1302.32 1560.69 L1302.32 1566.23 Q1299.17 1567.57 1295.86 1568.27 Q1292.55 1568.97 1289.15 1568.97 Q1280.62 1568.97 1275.62 1564 Q1270.65 1559.04 1270.65 1550.57 Q1270.65 1541.82 1275.36 1536.69 Q1280.11 1531.54 1288.13 1531.54 Q1295.32 1531.54 1299.49 1536.18 Q1303.69 1540.8 1303.69 1548.76 M1297.83 1547.04 Q1297.77 1542.23 1295.13 1539.37 Q1292.52 1536.5 1288.19 1536.5 Q1283.29 1536.5 1280.33 1539.27 Q1277.4 1542.04 1276.95 1547.07 L1297.83 1547.04 Z" fill="#000000" fill-rule="nonzero" fill-opacity="1" /><path clip-path="url(#clip330)" d="M1362.76 1522.08 L1362.76 1528.35 Q1359.1 1526.6 1355.86 1525.74 Q1352.61 1524.88 1349.59 1524.88 Q1344.34 1524.88 1341.47 1526.92 Q1338.64 1528.96 1338.64 1532.71 Q1338.64 1535.87 1340.52 1537.49 Q1342.43 1539.08 1347.71 1540.07 L1351.59 1540.86 Q1358.79 1542.23 1362.19 1545.7 Q1365.63 1549.14 1365.63 1554.93 Q1365.63 1561.84 1360.98 1565.4 Q1356.37 1568.97 1347.42 1568.97 Q1344.05 1568.97 1340.23 1568.2 Q1336.44 1567.44 1332.37 1565.94 L1332.37 1559.32 Q1336.28 1561.52 1340.04 1562.63 Q1343.79 1563.75 1347.42 1563.75 Q1352.93 1563.75 1355.92 1561.58 Q1358.91 1559.42 1358.91 1555.41 Q1358.91 1551.91 1356.75 1549.93 Q1354.62 1547.96 1349.71 1546.97 L1345.8 1546.21 Q1338.61 1544.78 1335.39 1541.72 Q1332.18 1538.67 1332.18 1533.22 Q1332.18 1526.92 1336.6 1523.29 Q1341.06 1519.66 1348.86 1519.66 Q1352.2 1519.66 1355.67 1520.27 Q1359.14 1520.87 1362.76 1522.08 Z" fill="#000000" fill-rule="nonzero" fill-opacity="1" /><path clip-path="url(#clip330)" d="M1375.4 1532.4 L1381.26 1532.4 L1381.26 1568.04 L1375.4 1568.04 L1375.4 1532.4 M1375.4 1518.52 L1381.26 1518.52 L1381.26 1525.93 L1375.4 1525.93 L1375.4 1518.52 Z" fill="#000000" fill-rule="nonzero" fill-opacity="1" /><path clip-path="url(#clip330)" d="M1421.27 1539.24 Q1423.46 1535.29 1426.52 1533.41 Q1429.57 1531.54 1433.71 1531.54 Q1439.28 1531.54 1442.3 1535.45 Q1445.33 1539.33 1445.33 1546.53 L1445.33 1568.04 L1439.44 1568.04 L1439.44 1546.72 Q1439.44 1541.59 1437.63 1539.11 Q1435.81 1536.63 1432.09 1536.63 Q1427.54 1536.63 1424.89 1539.65 Q1422.25 1542.68 1422.25 1547.9 L1422.25 1568.04 L1416.36 1568.04 L1416.36 1546.72 Q1416.36 1541.56 1414.55 1539.11 Q1412.74 1536.63 1408.95 1536.63 Q1404.46 1536.63 1401.82 1539.68 Q1399.18 1542.71 1399.18 1547.9 L1399.18 1568.04 L1393.29 1568.04 L1393.29 1532.4 L1399.18 1532.4 L1399.18 1537.93 Q1401.18 1534.66 1403.98 1533.1 Q1406.78 1531.54 1410.63 1531.54 Q1414.52 1531.54 1417.22 1533.51 Q1419.96 1535.48 1421.27 1539.24 Z" fill="#000000" fill-rule="nonzero" fill-opacity="1" /><path clip-path="url(#clip330)" d="M1456.4 1553.98 L1456.4 1532.4 L1462.26 1532.4 L1462.26 1553.75 Q1462.26 1558.81 1464.23 1561.36 Q1466.21 1563.87 1470.15 1563.87 Q1474.9 1563.87 1477.63 1560.85 Q1480.4 1557.83 1480.4 1552.61 L1480.4 1532.4 L1486.26 1532.4 L1486.26 1568.04 L1480.4 1568.04 L1480.4 1562.57 Q1478.27 1565.82 1475.44 1567.41 Q1472.64 1568.97 1468.91 1568.97 Q1462.77 1568.97 1459.59 1565.15 Q1456.4 1561.33 1456.4 1553.98 M1471.14 1531.54 L1471.14 1531.54 Z" fill="#000000" fill-rule="nonzero" fill-opacity="1" /><path clip-path="url(#clip330)" d="M1498.32 1518.52 L1504.18 1518.52 L1504.18 1568.04 L1498.32 1568.04 L1498.32 1518.52 Z" fill="#000000" fill-rule="nonzero" fill-opacity="1" /><path clip-path="url(#clip330)" d="M1532.63 1550.12 Q1525.54 1550.12 1522.8 1551.75 Q1520.06 1553.37 1520.06 1557.29 Q1520.06 1560.4 1522.1 1562.25 Q1524.17 1564.07 1527.7 1564.07 Q1532.57 1564.07 1535.5 1560.63 Q1538.46 1557.16 1538.46 1551.43 L1538.46 1550.12 L1532.63 1550.12 M1544.31 1547.71 L1544.31 1568.04 L1538.46 1568.04 L1538.46 1562.63 Q1536.45 1565.88 1533.46 1567.44 Q1530.47 1568.97 1526.14 1568.97 Q1520.67 1568.97 1517.42 1565.91 Q1514.2 1562.82 1514.2 1557.67 Q1514.2 1551.65 1518.22 1548.6 Q1522.26 1545.54 1530.25 1545.54 L1538.46 1545.54 L1538.46 1544.97 Q1538.46 1540.93 1535.78 1538.73 Q1533.14 1536.5 1528.34 1536.5 Q1525.28 1536.5 1522.38 1537.23 Q1519.49 1537.97 1516.81 1539.43 L1516.81 1534.02 Q1520.03 1532.78 1523.05 1532.17 Q1526.08 1531.54 1528.94 1531.54 Q1536.68 1531.54 1540.5 1535.55 Q1544.31 1539.56 1544.31 1547.71 Z" fill="#000000" fill-rule="nonzero" fill-opacity="1" /><path clip-path="url(#clip330)" d="M1582.03 1533.76 L1582.03 1539.24 Q1579.55 1537.87 1577.03 1537.2 Q1574.55 1536.5 1572.01 1536.5 Q1566.31 1536.5 1563.16 1540.13 Q1560.01 1543.73 1560.01 1550.25 Q1560.01 1556.78 1563.16 1560.4 Q1566.31 1564 1572.01 1564 Q1574.55 1564 1577.03 1563.33 Q1579.55 1562.63 1582.03 1561.26 L1582.03 1566.68 Q1579.58 1567.82 1576.94 1568.39 Q1574.33 1568.97 1571.37 1568.97 Q1563.32 1568.97 1558.57 1563.91 Q1553.83 1558.85 1553.83 1550.25 Q1553.83 1541.53 1558.61 1536.53 Q1563.41 1531.54 1571.75 1531.54 Q1574.46 1531.54 1577.03 1532.11 Q1579.61 1532.65 1582.03 1533.76 M1573.76 1568.04 Q1575.51 1570.02 1576.37 1571.67 Q1577.23 1573.36 1577.23 1574.89 Q1577.23 1577.72 1575.32 1579.15 Q1573.41 1580.62 1569.65 1580.62 Q1568.19 1580.62 1566.79 1580.43 Q1565.42 1580.23 1564.05 1579.85 L1564.05 1575.68 Q1565.13 1576.22 1566.31 1576.45 Q1567.49 1576.7 1568.98 1576.7 Q1570.86 1576.7 1571.81 1575.94 Q1572.77 1575.17 1572.77 1573.71 Q1572.77 1572.75 1572.07 1571.35 Q1571.4 1569.99 1569.97 1568.04 L1573.76 1568.04 Z" fill="#000000" fill-rule="nonzero" fill-opacity="1" /><path clip-path="url(#clip330)" d="M1606.03 1536.5 Q1601.32 1536.5 1598.58 1540.19 Q1595.85 1543.85 1595.85 1550.25 Q1595.85 1556.65 1598.55 1560.34 Q1601.29 1564 1606.03 1564 Q1610.71 1564 1613.45 1560.31 Q1616.18 1556.62 1616.18 1550.25 Q1616.18 1543.92 1613.45 1540.23 Q1610.71 1536.5 1606.03 1536.5 M1606.03 1531.54 Q1613.67 1531.54 1618.03 1536.5 Q1622.39 1541.47 1622.39 1550.25 Q1622.39 1559 1618.03 1564 Q1613.67 1568.97 1606.03 1568.97 Q1598.36 1568.97 1594 1564 Q1589.67 1559 1589.67 1550.25 Q1589.67 1541.47 1594 1536.5 Q1598.36 1531.54 1606.03 1531.54 M1605.9 1524.44 L1604.09 1522.69 Q1603.39 1522.05 1602.85 1521.77 Q1602.34 1521.45 1601.92 1521.45 Q1600.71 1521.45 1600.14 1522.62 Q1599.57 1523.77 1599.51 1526.38 L1595.53 1526.38 Q1595.59 1522.08 1597.21 1519.76 Q1598.84 1517.4 1601.73 1517.4 Q1602.94 1517.4 1603.96 1517.85 Q1604.98 1518.3 1606.16 1519.35 L1607.97 1521.1 Q1608.67 1521.73 1609.18 1522.05 Q1609.72 1522.34 1610.14 1522.34 Q1611.35 1522.34 1611.92 1521.19 Q1612.49 1520.01 1612.55 1517.4 L1616.53 1517.4 Q1616.47 1521.7 1614.85 1524.06 Q1613.22 1526.38 1610.33 1526.38 Q1609.12 1526.38 1608.1 1525.93 Q1607.08 1525.49 1605.9 1524.44 Z" fill="#000000" fill-rule="nonzero" fill-opacity="1" /><path clip-path="url(#clip330)" d="M1662.59 1548.76 L1662.59 1551.62 L1635.66 1551.62 Q1636.04 1557.67 1639.29 1560.85 Q1642.57 1564 1648.39 1564 Q1651.77 1564 1654.92 1563.17 Q1658.1 1562.35 1661.22 1560.69 L1661.22 1566.23 Q1658.07 1567.57 1654.76 1568.27 Q1651.45 1568.97 1648.04 1568.97 Q1639.51 1568.97 1634.52 1564 Q1629.55 1559.04 1629.55 1550.57 Q1629.55 1541.82 1634.26 1536.69 Q1639 1531.54 1647.03 1531.54 Q1654.22 1531.54 1658.39 1536.18 Q1662.59 1540.8 1662.59 1548.76 M1656.73 1547.04 Q1656.67 1542.23 1654.03 1539.37 Q1651.42 1536.5 1647.09 1536.5 Q1642.19 1536.5 1639.23 1539.27 Q1636.3 1542.04 1635.85 1547.07 L1656.73 1547.04 Z" fill="#000000" fill-rule="nonzero" fill-opacity="1" /><path clip-path="url(#clip330)" d="M1694.93 1533.45 L1694.93 1538.98 Q1692.44 1537.71 1689.77 1537.07 Q1687.1 1536.44 1684.23 1536.44 Q1679.87 1536.44 1677.68 1537.77 Q1675.51 1539.11 1675.51 1541.79 Q1675.51 1543.82 1677.07 1545 Q1678.63 1546.15 1683.34 1547.2 L1685.35 1547.64 Q1691.59 1548.98 1694.2 1551.43 Q1696.84 1553.85 1696.84 1558.21 Q1696.84 1563.17 1692.89 1566.07 Q1688.98 1568.97 1682.1 1568.97 Q1679.24 1568.97 1676.12 1568.39 Q1673.03 1567.85 1669.59 1566.74 L1669.59 1560.69 Q1672.84 1562.38 1675.99 1563.24 Q1679.14 1564.07 1682.23 1564.07 Q1686.37 1564.07 1688.59 1562.66 Q1690.82 1561.23 1690.82 1558.65 Q1690.82 1556.27 1689.2 1554.99 Q1687.61 1553.72 1682.16 1552.54 L1680.13 1552.07 Q1674.68 1550.92 1672.27 1548.56 Q1669.85 1546.18 1669.85 1542.04 Q1669.85 1537.01 1673.41 1534.27 Q1676.98 1531.54 1683.53 1531.54 Q1686.78 1531.54 1689.64 1532.01 Q1692.51 1532.49 1694.93 1533.45 Z" fill="#000000" fill-rule="nonzero" fill-opacity="1" /><polyline clip-path="url(#clip332)" style="stroke:#000000; stroke-linecap:round; stroke-linejoin:round; stroke-width:2; stroke-opacity:0.1; fill:none" points="262.551,1384.24 2352.76,1384.24 "/>
<polyline clip-path="url(#clip332)" style="stroke:#000000; stroke-linecap:round; stroke-linejoin:round; stroke-width:2; stroke-opacity:0.1; fill:none" points="262.551,1113.81 2352.76,1113.81 "/>
<polyline clip-path="url(#clip332)" style="stroke:#000000; stroke-linecap:round; stroke-linejoin:round; stroke-width:2; stroke-opacity:0.1; fill:none" points="262.551,843.383 2352.76,843.383 "/>
<polyline clip-path="url(#clip332)" style="stroke:#000000; stroke-linecap:round; stroke-linejoin:round; stroke-width:2; stroke-opacity:0.1; fill:none" points="262.551,572.955 2352.76,572.955 "/>
<polyline clip-path="url(#clip332)" style="stroke:#000000; stroke-linecap:round; stroke-linejoin:round; stroke-width:2; stroke-opacity:0.1; fill:none" points="262.551,302.528 2352.76,302.528 "/>
<polyline clip-path="url(#clip330)" style="stroke:#000000; stroke-linecap:round; stroke-linejoin:round; stroke-width:4; stroke-opacity:1; fill:none" points="262.551,1423.18 262.551,47.2441 "/>
<polyline clip-path="url(#clip330)" style="stroke:#000000; stroke-linecap:round; stroke-linejoin:round; stroke-width:4; stroke-opacity:1; fill:none" points="262.551,1384.24 281.449,1384.24 "/>
<polyline clip-path="url(#clip330)" style="stroke:#000000; stroke-linecap:round; stroke-linejoin:round; stroke-width:4; stroke-opacity:1; fill:none" points="262.551,1113.81 281.449,1113.81 "/>
<polyline clip-path="url(#clip330)" style="stroke:#000000; stroke-linecap:round; stroke-linejoin:round; stroke-width:4; stroke-opacity:1; fill:none" points="262.551,843.383 281.449,843.383 "/>
<polyline clip-path="url(#clip330)" style="stroke:#000000; stroke-linecap:round; stroke-linejoin:round; stroke-width:4; stroke-opacity:1; fill:none" points="262.551,572.955 281.449,572.955 "/>
<polyline clip-path="url(#clip330)" style="stroke:#000000; stroke-linecap:round; stroke-linejoin:round; stroke-width:4; stroke-opacity:1; fill:none" points="262.551,302.528 281.449,302.528 "/>
<path clip-path="url(#clip330)" d="M214.607 1370.04 Q210.996 1370.04 209.167 1373.6 Q207.362 1377.14 207.362 1384.27 Q207.362 1391.38 209.167 1394.94 Q210.996 1398.49 214.607 1398.49 Q218.241 1398.49 220.047 1394.94 Q221.875 1391.38 221.875 1384.27 Q221.875 1377.14 220.047 1373.6 Q218.241 1370.04 214.607 1370.04 M214.607 1366.33 Q220.417 1366.33 223.473 1370.94 Q226.551 1375.52 226.551 1384.27 Q226.551 1393 223.473 1397.61 Q220.417 1402.19 214.607 1402.19 Q208.797 1402.19 205.718 1397.61 Q202.662 1393 202.662 1384.27 Q202.662 1375.52 205.718 1370.94 Q208.797 1366.33 214.607 1366.33 Z" fill="#000000" fill-rule="nonzero" fill-opacity="1" /><path clip-path="url(#clip330)" d="M148.311 1127.16 L164.63 1127.16 L164.63 1131.09 L142.686 1131.09 L142.686 1127.16 Q145.348 1124.4 149.931 1119.77 Q154.538 1115.12 155.718 1113.78 Q157.964 1111.25 158.843 1109.52 Q159.746 1107.76 159.746 1106.07 Q159.746 1103.31 157.802 1101.58 Q155.88 1099.84 152.778 1099.84 Q150.579 1099.84 148.126 1100.6 Q145.695 1101.37 142.917 1102.92 L142.917 1098.2 Q145.741 1097.06 148.195 1096.48 Q150.649 1095.91 152.686 1095.91 Q158.056 1095.91 161.251 1098.59 Q164.445 1101.28 164.445 1105.77 Q164.445 1107.9 163.635 1109.82 Q162.848 1111.72 160.741 1114.31 Q160.163 1114.98 157.061 1118.2 Q153.959 1121.39 148.311 1127.16 Z" fill="#000000" fill-rule="nonzero" fill-opacity="1" /><path clip-path="url(#clip330)" d="M174.491 1096.53 L192.848 1096.53 L192.848 1100.47 L178.774 1100.47 L178.774 1108.94 Q179.792 1108.59 180.811 1108.43 Q181.829 1108.24 182.848 1108.24 Q188.635 1108.24 192.014 1111.41 Q195.394 1114.59 195.394 1120 Q195.394 1125.58 191.922 1128.68 Q188.45 1131.76 182.13 1131.76 Q179.954 1131.76 177.686 1131.39 Q175.44 1131.02 173.033 1130.28 L173.033 1125.58 Q175.116 1126.72 177.339 1127.27 Q179.561 1127.83 182.038 1127.83 Q186.042 1127.83 188.38 1125.72 Q190.718 1123.61 190.718 1120 Q190.718 1116.39 188.38 1114.29 Q186.042 1112.18 182.038 1112.18 Q180.163 1112.18 178.288 1112.6 Q176.436 1113.01 174.491 1113.89 L174.491 1096.53 Z" fill="#000000" fill-rule="nonzero" fill-opacity="1" /><path clip-path="url(#clip330)" d="M214.607 1099.61 Q210.996 1099.61 209.167 1103.17 Q207.362 1106.72 207.362 1113.85 Q207.362 1120.95 209.167 1124.52 Q210.996 1128.06 214.607 1128.06 Q218.241 1128.06 220.047 1124.52 Q221.875 1120.95 221.875 1113.85 Q221.875 1106.72 220.047 1103.17 Q218.241 1099.61 214.607 1099.61 M214.607 1095.91 Q220.417 1095.91 223.473 1100.51 Q226.551 1105.1 226.551 1113.85 Q226.551 1122.57 223.473 1127.18 Q220.417 1131.76 214.607 1131.76 Q208.797 1131.76 205.718 1127.18 Q202.662 1122.57 202.662 1113.85 Q202.662 1105.1 205.718 1100.51 Q208.797 1095.91 214.607 1095.91 Z" fill="#000000" fill-rule="nonzero" fill-opacity="1" /><path clip-path="url(#clip330)" d="M144.329 826.103 L162.686 826.103 L162.686 830.038 L148.612 830.038 L148.612 838.51 Q149.63 838.163 150.649 838.001 Q151.667 837.816 152.686 837.816 Q158.473 837.816 161.852 840.987 Q165.232 844.158 165.232 849.575 Q165.232 855.154 161.76 858.256 Q158.288 861.334 151.968 861.334 Q149.792 861.334 147.524 860.964 Q145.279 860.594 142.871 859.853 L142.871 855.154 Q144.954 856.288 147.177 856.844 Q149.399 857.399 151.876 857.399 Q155.88 857.399 158.218 855.293 Q160.556 853.186 160.556 849.575 Q160.556 845.964 158.218 843.858 Q155.88 841.751 151.876 841.751 Q150.001 841.751 148.126 842.168 Q146.274 842.584 144.329 843.464 L144.329 826.103 Z" fill="#000000" fill-rule="nonzero" fill-opacity="1" /><path clip-path="url(#clip330)" d="M184.445 829.182 Q180.834 829.182 179.005 832.747 Q177.2 836.288 177.2 843.418 Q177.2 850.524 179.005 854.089 Q180.834 857.631 184.445 857.631 Q188.079 857.631 189.885 854.089 Q191.713 850.524 191.713 843.418 Q191.713 836.288 189.885 832.747 Q188.079 829.182 184.445 829.182 M184.445 825.478 Q190.255 825.478 193.311 830.084 Q196.389 834.668 196.389 843.418 Q196.389 852.145 193.311 856.751 Q190.255 861.334 184.445 861.334 Q178.635 861.334 175.556 856.751 Q172.501 852.145 172.501 843.418 Q172.501 834.668 175.556 830.084 Q178.635 825.478 184.445 825.478 Z" fill="#000000" fill-rule="nonzero" fill-opacity="1" /><path clip-path="url(#clip330)" d="M214.607 829.182 Q210.996 829.182 209.167 832.747 Q207.362 836.288 207.362 843.418 Q207.362 850.524 209.167 854.089 Q210.996 857.631 214.607 857.631 Q218.241 857.631 220.047 854.089 Q221.875 850.524 221.875 843.418 Q221.875 836.288 220.047 832.747 Q218.241 829.182 214.607 829.182 M214.607 825.478 Q220.417 825.478 223.473 830.084 Q226.551 834.668 226.551 843.418 Q226.551 852.145 223.473 856.751 Q220.417 861.334 214.607 861.334 Q208.797 861.334 205.718 856.751 Q202.662 852.145 202.662 843.418 Q202.662 834.668 205.718 830.084 Q208.797 825.478 214.607 825.478 Z" fill="#000000" fill-rule="nonzero" fill-opacity="1" /><path clip-path="url(#clip330)" d="M143.103 555.675 L165.325 555.675 L165.325 557.666 L152.778 590.235 L147.894 590.235 L159.7 559.611 L143.103 559.611 L143.103 555.675 Z" fill="#000000" fill-rule="nonzero" fill-opacity="1" /><path clip-path="url(#clip330)" d="M174.491 555.675 L192.848 555.675 L192.848 559.611 L178.774 559.611 L178.774 568.083 Q179.792 567.736 180.811 567.573 Q181.829 567.388 182.848 567.388 Q188.635 567.388 192.014 570.56 Q195.394 573.731 195.394 579.147 Q195.394 584.726 191.922 587.828 Q188.45 590.907 182.13 590.907 Q179.954 590.907 177.686 590.536 Q175.44 590.166 173.033 589.425 L173.033 584.726 Q175.116 585.86 177.339 586.416 Q179.561 586.972 182.038 586.972 Q186.042 586.972 188.38 584.865 Q190.718 582.759 190.718 579.147 Q190.718 575.536 188.38 573.43 Q186.042 571.323 182.038 571.323 Q180.163 571.323 178.288 571.74 Q176.436 572.157 174.491 573.036 L174.491 555.675 Z" fill="#000000" fill-rule="nonzero" fill-opacity="1" /><path clip-path="url(#clip330)" d="M214.607 558.754 Q210.996 558.754 209.167 562.319 Q207.362 565.861 207.362 572.99 Q207.362 580.097 209.167 583.661 Q210.996 587.203 214.607 587.203 Q218.241 587.203 220.047 583.661 Q221.875 580.097 221.875 572.99 Q221.875 565.861 220.047 562.319 Q218.241 558.754 214.607 558.754 M214.607 555.05 Q220.417 555.05 223.473 559.657 Q226.551 564.24 226.551 572.99 Q226.551 581.717 223.473 586.323 Q220.417 590.907 214.607 590.907 Q208.797 590.907 205.718 586.323 Q202.662 581.717 202.662 572.99 Q202.662 564.24 205.718 559.657 Q208.797 555.05 214.607 555.05 Z" fill="#000000" fill-rule="nonzero" fill-opacity="1" /><path clip-path="url(#clip330)" d="M114.931 315.873 L122.57 315.873 L122.57 289.507 L114.26 291.174 L114.26 286.914 L122.524 285.248 L127.2 285.248 L127.2 315.873 L134.839 315.873 L134.839 319.808 L114.931 319.808 L114.931 315.873 Z" fill="#000000" fill-rule="nonzero" fill-opacity="1" /><path clip-path="url(#clip330)" d="M154.283 288.326 Q150.672 288.326 148.843 291.891 Q147.038 295.433 147.038 302.562 Q147.038 309.669 148.843 313.234 Q150.672 316.775 154.283 316.775 Q157.917 316.775 159.723 313.234 Q161.552 309.669 161.552 302.562 Q161.552 295.433 159.723 291.891 Q157.917 288.326 154.283 288.326 M154.283 284.623 Q160.093 284.623 163.149 289.229 Q166.227 293.813 166.227 302.562 Q166.227 311.289 163.149 315.896 Q160.093 320.479 154.283 320.479 Q148.473 320.479 145.394 315.896 Q142.339 311.289 142.339 302.562 Q142.339 293.813 145.394 289.229 Q148.473 284.623 154.283 284.623 Z" fill="#000000" fill-rule="nonzero" fill-opacity="1" /><path clip-path="url(#clip330)" d="M184.445 288.326 Q180.834 288.326 179.005 291.891 Q177.2 295.433 177.2 302.562 Q177.2 309.669 179.005 313.234 Q180.834 316.775 184.445 316.775 Q188.079 316.775 189.885 313.234 Q191.713 309.669 191.713 302.562 Q191.713 295.433 189.885 291.891 Q188.079 288.326 184.445 288.326 M184.445 284.623 Q190.255 284.623 193.311 289.229 Q196.389 293.813 196.389 302.562 Q196.389 311.289 193.311 315.896 Q190.255 320.479 184.445 320.479 Q178.635 320.479 175.556 315.896 Q172.501 311.289 172.501 302.562 Q172.501 293.813 175.556 289.229 Q178.635 284.623 184.445 284.623 Z" fill="#000000" fill-rule="nonzero" fill-opacity="1" /><path clip-path="url(#clip330)" d="M214.607 288.326 Q210.996 288.326 209.167 291.891 Q207.362 295.433 207.362 302.562 Q207.362 309.669 209.167 313.234 Q210.996 316.775 214.607 316.775 Q218.241 316.775 220.047 313.234 Q221.875 309.669 221.875 302.562 Q221.875 295.433 220.047 291.891 Q218.241 288.326 214.607 288.326 M214.607 284.623 Q220.417 284.623 223.473 289.229 Q226.551 293.813 226.551 302.562 Q226.551 311.289 223.473 315.896 Q220.417 320.479 214.607 320.479 Q208.797 320.479 205.718 315.896 Q202.662 311.289 202.662 302.562 Q202.662 293.813 205.718 289.229 Q208.797 284.623 214.607 284.623 Z" fill="#000000" fill-rule="nonzero" fill-opacity="1" /><path clip-path="url(#clip330)" d="M57.2247 1007.3 L44.4614 1007.3 L44.4614 1017.8 L39.1779 1017.8 L39.1779 1000.93 L59.58 1000.93 Q62.2218 1004.66 63.5904 1009.14 Q64.9272 1013.63 64.9272 1018.72 Q64.9272 1029.86 58.4342 1036.17 Q51.9093 1042.44 40.2919 1042.44 Q28.6427 1042.44 22.1496 1036.17 Q15.6248 1029.86 15.6248 1018.72 Q15.6248 1014.08 16.7706 1009.91 Q17.9164 1005.71 20.1444 1002.17 L26.9876 1002.17 Q23.9639 1005.74 22.4361 1009.75 Q20.9083 1013.76 20.9083 1018.18 Q20.9083 1026.9 25.7781 1031.3 Q30.6479 1035.66 40.2919 1035.66 Q49.9041 1035.66 54.7739 1031.3 Q59.6436 1026.9 59.6436 1018.18 Q59.6436 1014.78 59.0707 1012.1 Q58.466 1009.43 57.2247 1007.3 Z" fill="#000000" fill-rule="nonzero" fill-opacity="1" /><path clip-path="url(#clip330)" d="M46.0847 973.242 Q46.0847 980.339 47.7079 983.077 Q49.3312 985.814 53.2461 985.814 Q56.3653 985.814 58.2114 983.777 Q60.0256 981.708 60.0256 978.175 Q60.0256 973.305 56.5881 970.377 Q53.1188 967.417 47.3897 967.417 L46.0847 967.417 L46.0847 973.242 M43.6657 961.561 L64.0042 961.561 L64.0042 967.417 L58.5933 967.417 Q61.8398 969.422 63.3994 972.414 Q64.9272 975.406 64.9272 979.735 Q64.9272 985.209 61.8716 988.456 Q58.7843 991.67 53.6281 991.67 Q47.6125 991.67 44.5569 987.66 Q41.5014 983.618 41.5014 975.629 L41.5014 967.417 L40.9285 967.417 Q36.8862 967.417 34.6901 970.091 Q32.4621 972.732 32.4621 977.539 Q32.4621 980.594 33.1941 983.49 Q33.9262 986.387 35.3903 989.06 L29.9795 989.06 Q28.7381 985.846 28.1334 982.822 Q27.4968 979.798 27.4968 976.934 Q27.4968 969.199 31.5072 965.38 Q35.5176 961.561 43.6657 961.561 Z" fill="#000000" fill-rule="nonzero" fill-opacity="1" /><path clip-path="url(#clip330)" d="M42.4881 919.865 L64.0042 919.865 L64.0042 925.722 L42.679 925.722 Q37.6183 925.722 35.1038 927.695 Q32.5894 929.668 32.5894 933.615 Q32.5894 938.358 35.6131 941.095 Q38.6368 943.832 43.8567 943.832 L64.0042 943.832 L64.0042 949.72 L28.3562 949.72 L28.3562 943.832 L33.8944 943.832 Q30.6797 941.731 29.0883 938.899 Q27.4968 936.034 27.4968 932.31 Q27.4968 926.167 31.3163 923.016 Q35.1038 919.865 42.4881 919.865 Z" fill="#000000" fill-rule="nonzero" fill-opacity="1" /><path clip-path="url(#clip330)" d="M42.4881 878.552 L64.0042 878.552 L64.0042 884.408 L42.679 884.408 Q37.6183 884.408 35.1038 886.382 Q32.5894 888.355 32.5894 892.302 Q32.5894 897.044 35.6131 899.781 Q38.6368 902.519 43.8567 902.519 L64.0042 902.519 L64.0042 908.407 L14.479 908.407 L14.479 902.519 L33.8944 902.519 Q30.6797 900.418 29.0883 897.585 Q27.4968 894.721 27.4968 890.997 Q27.4968 884.854 31.3163 881.703 Q35.1038 878.552 42.4881 878.552 Z" fill="#000000" fill-rule="nonzero" fill-opacity="1" /><path clip-path="url(#clip330)" d="M32.4621 853.057 Q32.4621 857.768 36.1542 860.505 Q39.8145 863.242 46.212 863.242 Q52.6095 863.242 56.3017 860.537 Q59.9619 857.8 59.9619 853.057 Q59.9619 848.378 56.2698 845.641 Q52.5777 842.904 46.212 842.904 Q39.8781 842.904 36.186 845.641 Q32.4621 848.378 32.4621 853.057 M27.4968 853.057 Q27.4968 845.418 32.4621 841.058 Q37.4273 836.697 46.212 836.697 Q54.9649 836.697 59.9619 841.058 Q64.9272 845.418 64.9272 853.057 Q64.9272 860.728 59.9619 865.088 Q54.9649 869.417 46.212 869.417 Q37.4273 869.417 32.4621 865.088 Q27.4968 860.728 27.4968 853.057 Z" fill="#000000" fill-rule="nonzero" fill-opacity="1" /><path clip-path="url(#clip330)" d="M29.4065 804.264 L34.9447 804.264 Q33.6716 806.747 33.035 809.42 Q32.3984 812.094 32.3984 814.958 Q32.3984 819.319 33.7352 821.515 Q35.072 823.679 37.7456 823.679 Q39.7826 823.679 40.9603 822.12 Q42.1061 820.56 43.1565 815.85 L43.6021 813.844 Q44.9389 807.606 47.3897 804.996 Q49.8086 802.354 54.1691 802.354 Q59.1344 802.354 62.0308 806.301 Q64.9272 810.216 64.9272 817.091 Q64.9272 819.955 64.3543 823.075 Q63.8132 826.162 62.6992 829.599 L56.6518 829.599 Q58.3387 826.353 59.198 823.202 Q60.0256 820.051 60.0256 816.964 Q60.0256 812.826 58.6251 810.598 Q57.1929 808.37 54.6147 808.37 Q52.2276 808.37 50.9545 809.993 Q49.6813 811.585 48.5037 817.027 L48.0262 819.064 Q46.8804 824.507 44.5251 826.926 Q42.138 829.345 38.0002 829.345 Q32.9713 829.345 30.2341 825.78 Q27.4968 822.215 27.4968 815.659 Q27.4968 812.412 27.9743 809.548 Q28.4517 806.683 29.4065 804.264 Z" fill="#000000" fill-rule="nonzero" fill-opacity="1" /><path clip-path="url(#clip330)" d="M33.7671 748.85 L14.479 748.85 L14.479 742.994 L64.0042 742.994 L64.0042 748.85 L58.657 748.85 Q61.8398 750.697 63.3994 753.529 Q64.9272 756.33 64.9272 760.277 Q64.9272 766.738 59.771 770.812 Q54.6147 774.854 46.212 774.854 Q37.8093 774.854 32.6531 770.812 Q27.4968 766.738 27.4968 760.277 Q27.4968 756.33 29.0564 753.529 Q30.5842 750.697 33.7671 748.85 M46.212 768.807 Q52.6732 768.807 56.3653 766.165 Q60.0256 763.492 60.0256 758.845 Q60.0256 754.198 56.3653 751.524 Q52.6732 748.85 46.212 748.85 Q39.7508 748.85 36.0905 751.524 Q32.3984 754.198 32.3984 758.845 Q32.3984 763.492 36.0905 766.165 Q39.7508 768.807 46.212 768.807 Z" fill="#000000" fill-rule="nonzero" fill-opacity="1" /><path clip-path="url(#clip330)" d="M32.4621 717.117 Q32.4621 721.828 36.1542 724.565 Q39.8145 727.303 46.212 727.303 Q52.6095 727.303 56.3017 724.597 Q59.9619 721.86 59.9619 717.117 Q59.9619 712.439 56.2698 709.701 Q52.5777 706.964 46.212 706.964 Q39.8781 706.964 36.186 709.701 Q32.4621 712.439 32.4621 717.117 M27.4968 717.117 Q27.4968 709.479 32.4621 705.118 Q37.4273 700.758 46.212 700.758 Q54.9649 700.758 59.9619 705.118 Q64.9272 709.479 64.9272 717.117 Q64.9272 724.788 59.9619 729.149 Q54.9649 733.477 46.212 733.477 Q37.4273 733.477 32.4621 729.149 Q27.4968 724.788 27.4968 717.117 Z" fill="#000000" fill-rule="nonzero" fill-opacity="1" /><path clip-path="url(#clip330)" d="M16.4842 670.075 L16.4842 663.646 L60.694 663.646 Q69.2877 663.646 73.1708 666.924 Q77.0539 670.17 77.0539 677.395 L77.0539 679.846 L71.643 679.846 L71.643 677.841 Q71.643 673.576 69.2559 671.825 Q66.8687 670.075 60.694 670.075 L16.4842 670.075 Z" fill="#000000" fill-rule="nonzero" fill-opacity="1" /><path clip-path="url(#clip330)" d="M32.4621 637.291 Q32.4621 642.002 36.1542 644.739 Q39.8145 647.477 46.212 647.477 Q52.6095 647.477 56.3017 644.771 Q59.9619 642.034 59.9619 637.291 Q59.9619 632.613 56.2698 629.875 Q52.5777 627.138 46.212 627.138 Q39.8781 627.138 36.186 629.875 Q32.4621 632.613 32.4621 637.291 M27.4968 637.291 Q27.4968 629.653 32.4621 625.292 Q37.4273 620.932 46.212 620.932 Q54.9649 620.932 59.9619 625.292 Q64.9272 629.653 64.9272 637.291 Q64.9272 644.962 59.9619 649.323 Q54.9649 653.651 46.212 653.651 Q37.4273 653.651 32.4621 649.323 Q27.4968 644.962 27.4968 637.291 Z" fill="#000000" fill-rule="nonzero" fill-opacity="1" /><path clip-path="url(#clip330)" d="M45.7664 587.766 Q39.4007 587.766 35.8996 590.408 Q32.3984 593.018 32.3984 597.76 Q32.3984 602.471 35.8996 605.113 Q39.4007 607.723 45.7664 607.723 Q52.1003 607.723 55.6014 605.113 Q59.1026 602.471 59.1026 597.76 Q59.1026 593.018 55.6014 590.408 Q52.1003 587.766 45.7664 587.766 M59.58 581.91 Q68.683 581.91 73.1071 585.952 Q77.5631 589.994 77.5631 598.333 Q77.5631 601.421 77.0857 604.158 Q76.6401 606.895 75.6852 609.473 L69.9879 609.473 Q71.3884 606.895 72.0568 604.381 Q72.7252 601.866 72.7252 599.256 Q72.7252 593.495 69.7015 590.631 Q66.7096 587.766 60.6303 587.766 L57.7339 587.766 Q60.885 589.581 62.4446 592.413 Q64.0042 595.246 64.0042 599.193 Q64.0042 605.749 59.0071 609.76 Q54.01 613.77 45.7664 613.77 Q37.491 613.77 32.4939 609.76 Q27.4968 605.749 27.4968 599.193 Q27.4968 595.246 29.0564 592.413 Q30.616 589.581 33.7671 587.766 L28.3562 587.766 L28.3562 581.91 L59.58 581.91 Z" fill="#000000" fill-rule="nonzero" fill-opacity="1" /><path clip-path="url(#clip330)" d="M46.0847 553.646 Q46.0847 560.744 47.7079 563.481 Q49.3312 566.218 53.2461 566.218 Q56.3653 566.218 58.2114 564.181 Q60.0256 562.112 60.0256 558.58 Q60.0256 553.71 56.5881 550.782 Q53.1188 547.821 47.3897 547.821 L46.0847 547.821 L46.0847 553.646 M43.6657 541.965 L64.0042 541.965 L64.0042 547.821 L58.5933 547.821 Q61.8398 549.827 63.3994 552.819 Q64.9272 555.81 64.9272 560.139 Q64.9272 565.614 61.8716 568.86 Q58.7843 572.075 53.6281 572.075 Q47.6125 572.075 44.5569 568.064 Q41.5014 564.022 41.5014 556.033 L41.5014 547.821 L40.9285 547.821 Q36.8862 547.821 34.6901 550.495 Q32.4621 553.137 32.4621 557.943 Q32.4621 560.998 33.1941 563.895 Q33.9262 566.791 35.3903 569.465 L29.9795 569.465 Q28.7381 566.25 28.1334 563.226 Q27.4968 560.203 27.4968 557.338 Q27.4968 549.604 31.5072 545.784 Q35.5176 541.965 43.6657 541.965 Z" fill="#000000" fill-rule="nonzero" fill-opacity="1" /><path clip-path="url(#clip330)" d="M33.7671 506.444 L14.479 506.444 L14.479 500.588 L64.0042 500.588 L64.0042 506.444 L58.657 506.444 Q61.8398 508.29 63.3994 511.123 Q64.9272 513.924 64.9272 517.871 Q64.9272 524.332 59.771 528.406 Q54.6147 532.448 46.212 532.448 Q37.8093 532.448 32.6531 528.406 Q27.4968 524.332 27.4968 517.871 Q27.4968 513.924 29.0564 511.123 Q30.5842 508.29 33.7671 506.444 M46.212 526.401 Q52.6732 526.401 56.3653 523.759 Q60.0256 521.086 60.0256 516.439 Q60.0256 511.792 56.3653 509.118 Q52.6732 506.444 46.212 506.444 Q39.7508 506.444 36.0905 509.118 Q32.3984 511.792 32.3984 516.439 Q32.3984 521.086 36.0905 523.759 Q39.7508 526.401 46.212 526.401 Z" fill="#000000" fill-rule="nonzero" fill-opacity="1" /><path clip-path="url(#clip330)" d="M32.4621 474.711 Q32.4621 479.422 36.1542 482.159 Q39.8145 484.896 46.212 484.896 Q52.6095 484.896 56.3017 482.191 Q59.9619 479.454 59.9619 474.711 Q59.9619 470.033 56.2698 467.295 Q52.5777 464.558 46.212 464.558 Q39.8781 464.558 36.186 467.295 Q32.4621 470.033 32.4621 474.711 M27.4968 474.711 Q27.4968 467.072 32.4621 462.712 Q37.4273 458.351 46.212 458.351 Q54.9649 458.351 59.9619 462.712 Q64.9272 467.072 64.9272 474.711 Q64.9272 482.382 59.9619 486.743 Q54.9649 491.071 46.212 491.071 Q37.4273 491.071 32.4621 486.743 Q27.4968 482.382 27.4968 474.711 Z" fill="#000000" fill-rule="nonzero" fill-opacity="1" /><path clip-path="url(#clip330)" d="M33.8307 427.987 Q33.2578 428.974 33.0032 430.151 Q32.7167 431.297 32.7167 432.698 Q32.7167 437.663 35.9632 440.337 Q39.1779 442.978 45.2253 442.978 L64.0042 442.978 L64.0042 448.867 L28.3562 448.867 L28.3562 442.978 L33.8944 442.978 Q30.6479 441.132 29.0883 438.172 Q27.4968 435.212 27.4968 430.979 Q27.4968 430.374 27.5923 429.642 Q27.656 428.91 27.8151 428.019 L33.8307 427.987 Z" fill="#000000" fill-rule="nonzero" fill-opacity="1" /><polyline clip-path="url(#clip332)" style="stroke:#009af9; stroke-linecap:round; stroke-linejoin:round; stroke-width:4; stroke-opacity:1; fill:none" points="321.708,302.528 323.792,324.162 325.877,302.528 327.961,280.894 330.046,259.259 332.13,237.625 334.215,259.259 336.299,237.625 338.384,259.259 340.468,237.625 342.552,215.991 344.637,194.357 346.721,215.991 348.806,194.357 350.89,172.723 352.975,151.088 355.059,129.454 357.144,107.82 359.228,129.454 361.313,151.088 363.397,172.723 365.481,151.088 367.566,129.454 369.65,107.82 371.735,129.454 373.819,151.088 375.904,129.454 377.988,151.088 380.073,129.454 382.157,107.82 384.242,129.454 386.326,107.82 388.41,86.1857 390.495,107.82 392.579,129.454 394.664,151.088 396.748,172.723 398.833,194.357 400.917,215.991 403.002,194.357 405.086,172.723 407.17,151.088 409.255,129.454 411.339,107.82 413.424,129.454 415.508,107.82 417.593,129.454 419.677,151.088 421.762,129.454 423.846,151.088 425.931,172.723 428.015,151.088 430.099,129.454 432.184,107.82 434.268,129.454 436.353,107.82 438.437,129.454 440.522,151.088 442.606,129.454 444.691,151.088 446.775,172.723 448.86,194.357 450.944,172.723 453.028,194.357 455.113,172.723 457.197,194.357 459.282,215.991 461.366,194.357 463.451,215.991 465.535,237.625 467.62,215.991 469.704,194.357 471.788,215.991 473.873,194.357 475.957,172.723 478.042,194.357 480.126,172.723 482.211,151.088 484.295,172.723 486.38,151.088 488.464,172.723 490.549,151.088 492.633,172.723 494.717,194.357 496.802,215.991 498.886,194.357 500.971,172.723 503.055,194.357 505.14,215.991 507.224,237.625 509.309,259.259 511.393,280.894 513.478,259.259 515.562,280.894 517.646,302.528 519.731,324.162 521.815,302.528 523.9,280.894 525.984,302.528 528.069,324.162 530.153,302.528 532.238,280.894 534.322,259.259 536.406,237.625 538.491,259.259 540.575,237.625 542.66,259.259 544.744,237.625 546.829,215.991 548.913,237.625 550.998,215.991 553.082,237.625 555.167,259.259 557.251,280.894 559.335,259.259 561.42,237.625 563.504,259.259 565.589,237.625 567.673,259.259 569.758,237.625 571.842,259.259 573.927,280.894 576.011,259.259 578.096,280.894 580.18,259.259 582.264,280.894 584.349,302.528 586.433,324.162 588.518,302.528 590.602,324.162 592.687,302.528 594.771,324.162 596.856,302.528 598.94,324.162 601.024,302.528 603.109,324.162 605.193,345.796 607.278,324.162 609.362,302.528 611.447,280.894 613.531,259.259 615.616,237.625 617.7,215.991 619.785,237.625 621.869,259.259 623.953,280.894 626.038,259.259 628.122,280.894 630.207,259.259 632.291,237.625 634.376,259.259 636.46,280.894 638.545,302.528 640.629,280.894 642.714,302.528 644.798,280.894 646.882,302.528 648.967,324.162 651.051,345.796 653.136,367.43 655.22,345.796 657.305,324.162 659.389,345.796 661.474,367.43 663.558,389.065 665.642,367.43 667.727,345.796 669.811,324.162 671.896,302.528 673.98,280.894 676.065,259.259 678.149,280.894 680.234,259.259 682.318,280.894 684.403,302.528 686.487,324.162 688.571,302.528 690.656,280.894 692.74,259.259 694.825,237.625 696.909,259.259 698.994,237.625 701.078,259.259 703.163,280.894 705.247,302.528 707.332,280.894 709.416,302.528 711.5,280.894 713.585,302.528 715.669,280.894 717.754,302.528 719.838,324.162 721.923,302.528 724.007,324.162 726.092,345.796 728.176,324.162 730.26,345.796 732.345,324.162 734.429,345.796 736.514,367.43 738.598,389.065 740.683,410.699 742.767,432.333 744.852,453.967 746.936,475.601 749.021,453.967 751.105,475.601 753.189,497.236 755.274,518.87 757.358,497.236 759.443,475.601 761.527,497.236 763.612,518.87 765.696,540.504 767.781,518.87 769.865,540.504 771.95,518.87 774.034,497.236 776.118,475.601 778.203,497.236 780.287,518.87 782.372,497.236 784.456,518.87 786.541,540.504 788.625,518.87 790.71,540.504 792.794,562.138 794.878,540.504 796.963,562.138 799.047,540.504 801.132,562.138 803.216,540.504 805.301,562.138 807.385,583.772 809.47,605.407 811.554,583.772 813.639,605.407 815.723,583.772 817.807,562.138 819.892,540.504 821.976,562.138 824.061,583.772 826.145,562.138 828.23,540.504 830.314,562.138 832.399,540.504 834.483,518.87 836.568,497.236 838.652,475.601 840.736,497.236 842.821,518.87 844.905,540.504 846.99,518.87 849.074,497.236 851.159,475.601 853.243,497.236 855.328,475.601 857.412,497.236 859.496,475.601 861.581,453.967 863.665,432.333 865.75,410.699 867.834,432.333 869.919,453.967 872.003,432.333 874.088,453.967 876.172,432.333 878.257,410.699 880.341,432.333 882.425,453.967 884.51,432.333 886.594,410.699 888.679,432.333 890.763,410.699 892.848,389.065 894.932,410.699 897.017,389.065 899.101,367.43 901.186,345.796 903.27,367.43 905.354,345.796 907.439,324.162 909.523,345.796 911.608,367.43 913.692,389.065 915.777,410.699 917.861,389.065 919.946,410.699 922.03,432.333 924.114,453.967 926.199,475.601 928.283,497.236 930.368,475.601 932.452,497.236 934.537,518.87 936.621,540.504 938.706,518.87 940.79,497.236 942.875,475.601 944.959,497.236 947.043,518.87 949.128,497.236 951.212,475.601 953.297,453.967 955.381,475.601 957.466,497.236 959.55,518.87 961.635,540.504 963.719,518.87 965.804,497.236 967.888,475.601 969.972,453.967 972.057,432.333 974.141,453.967 976.226,432.333 978.31,410.699 980.395,432.333 982.479,453.967 984.564,475.601 986.648,497.236 988.732,518.87 990.817,497.236 992.901,518.87 994.986,540.504 997.07,518.87 999.155,497.236 1001.24,518.87 1003.32,540.504 1005.41,518.87 1007.49,497.236 1009.58,518.87 1011.66,497.236 1013.75,475.601 1015.83,497.236 1017.91,518.87 1020,497.236 1022.08,475.601 1024.17,453.967 1026.25,432.333 1028.34,410.699 1030.42,432.333 1032.51,453.967 1034.59,475.601 1036.67,497.236 1038.76,475.601 1040.84,497.236 1042.93,518.87 1045.01,540.504 1047.1,562.138 1049.18,583.772 1051.27,562.138 1053.35,583.772 1055.43,605.407 1057.52,583.772 1059.6,562.138 1061.69,583.772 1063.77,605.407 1065.86,583.772 1067.94,605.407 1070.03,583.772 1072.11,562.138 1074.19,540.504 1076.28,518.87 1078.36,540.504 1080.45,518.87 1082.53,497.236 1084.62,475.601 1086.7,497.236 1088.79,518.87 1090.87,497.236 1092.96,518.87 1095.04,540.504 1097.12,562.138 1099.21,540.504 1101.29,562.138 1103.38,540.504 1105.46,562.138 1107.55,583.772 1109.63,562.138 1111.72,583.772 1113.8,562.138 1115.88,540.504 1117.97,562.138 1120.05,583.772 1122.14,562.138 1124.22,583.772 1126.31,562.138 1128.39,540.504 1130.48,518.87 1132.56,540.504 1134.64,562.138 1136.73,583.772 1138.81,605.407 1140.9,627.041 1142.98,605.407 1145.07,627.041 1147.15,605.407 1149.24,583.772 1151.32,562.138 1153.4,540.504 1155.49,562.138 1157.57,583.772 1159.66,562.138 1161.74,583.772 1163.83,605.407 1165.91,627.041 1168,648.675 1170.08,670.309 1172.16,691.944 1174.25,670.309 1176.33,691.944 1178.42,713.578 1180.5,735.212 1182.59,756.846 1184.67,735.212 1186.76,756.846 1188.84,778.48 1190.92,756.846 1193.01,778.48 1195.09,800.115 1197.18,778.48 1199.26,800.115 1201.35,821.749 1203.43,843.383 1205.52,821.749 1207.6,800.115 1209.68,778.48 1211.77,800.115 1213.85,778.48 1215.94,800.115 1218.02,778.48 1220.11,800.115 1222.19,778.48 1224.28,800.115 1226.36,778.48 1228.44,800.115 1230.53,821.749 1232.61,843.383 1234.7,865.017 1236.78,886.651 1238.87,865.017 1240.95,886.651 1243.04,865.017 1245.12,843.383 1247.2,865.017 1249.29,886.651 1251.37,908.286 1253.46,929.92 1255.54,908.286 1257.63,929.92 1259.71,908.286 1261.8,929.92 1263.88,908.286 1265.96,886.651 1268.05,908.286 1270.13,929.92 1272.22,951.554 1274.3,929.92 1276.39,908.286 1278.47,886.651 1280.56,908.286 1282.64,929.92 1284.72,951.554 1286.81,973.188 1288.89,951.554 1290.98,973.188 1293.06,994.822 1295.15,973.188 1297.23,951.554 1299.32,929.92 1301.4,951.554 1303.48,929.92 1305.57,951.554 1307.65,929.92 1309.74,908.286 1311.82,929.92 1313.91,908.286 1315.99,929.92 1318.08,908.286 1320.16,929.92 1322.24,951.554 1324.33,929.92 1326.41,951.554 1328.5,929.92 1330.58,908.286 1332.67,929.92 1334.75,951.554 1336.84,929.92 1338.92,951.554 1341,973.188 1343.09,951.554 1345.17,973.188 1347.26,951.554 1349.34,929.92 1351.43,908.286 1353.51,929.92 1355.6,908.286 1357.68,886.651 1359.76,865.017 1361.85,843.383 1363.93,821.749 1366.02,843.383 1368.1,865.017 1370.19,886.651 1372.27,908.286 1374.36,929.92 1376.44,951.554 1378.52,973.188 1380.61,994.822 1382.69,973.188 1384.78,994.822 1386.86,973.188 1388.95,994.822 1391.03,973.188 1393.12,994.822 1395.2,973.188 1397.28,951.554 1399.37,929.92 1401.45,951.554 1403.54,973.188 1405.62,951.554 1407.71,929.92 1409.79,951.554 1411.88,973.188 1413.96,994.822 1416.05,973.188 1418.13,994.822 1420.21,1016.46 1422.3,1038.09 1424.38,1059.73 1426.47,1038.09 1428.55,1016.46 1430.64,994.822 1432.72,973.188 1434.81,951.554 1436.89,973.188 1438.97,994.822 1441.06,1016.46 1443.14,1038.09 1445.23,1059.73 1447.31,1081.36 1449.4,1059.73 1451.48,1038.09 1453.57,1059.73 1455.65,1081.36 1457.73,1102.99 1459.82,1081.36 1461.9,1102.99 1463.99,1081.36 1466.07,1102.99 1468.16,1124.63 1470.24,1146.26 1472.33,1124.63 1474.41,1146.26 1476.49,1167.9 1478.58,1146.26 1480.66,1167.9 1482.75,1189.53 1484.83,1211.16 1486.92,1232.8 1489,1211.16 1491.09,1232.8 1493.17,1254.43 1495.25,1232.8 1497.34,1211.16 1499.42,1232.8 1501.51,1211.16 1503.59,1189.53 1505.68,1167.9 1507.76,1146.26 1509.85,1124.63 1511.93,1146.26 1514.01,1124.63 1516.1,1102.99 1518.18,1081.36 1520.27,1059.73 1522.35,1081.36 1524.44,1102.99 1526.52,1124.63 1528.61,1146.26 1530.69,1124.63 1532.77,1102.99 1534.86,1081.36 1536.94,1102.99 1539.03,1081.36 1541.11,1102.99 1543.2,1124.63 1545.28,1146.26 1547.37,1167.9 1549.45,1189.53 1551.53,1167.9 1553.62,1146.26 1555.7,1167.9 1557.79,1146.26 1559.87,1167.9 1561.96,1146.26 1564.04,1167.9 1566.13,1189.53 1568.21,1211.16 1570.29,1232.8 1572.38,1211.16 1574.46,1232.8 1576.55,1211.16 1578.63,1232.8 1580.72,1254.43 1582.8,1276.07 1584.89,1297.7 1586.97,1276.07 1589.05,1297.7 1591.14,1319.34 1593.22,1297.7 1595.31,1319.34 1597.39,1297.7 1599.48,1276.07 1601.56,1254.43 1603.65,1232.8 1605.73,1254.43 1607.81,1232.8 1609.9,1211.16 1611.98,1232.8 1614.07,1211.16 1616.15,1232.8 1618.24,1254.43 1620.32,1276.07 1622.41,1297.7 1624.49,1276.07 1626.57,1297.7 1628.66,1276.07 1630.74,1254.43 1632.83,1232.8 1634.91,1254.43 1637,1276.07 1639.08,1254.43 1641.17,1276.07 1643.25,1297.7 1645.33,1276.07 1647.42,1254.43 1649.5,1232.8 1651.59,1211.16 1653.67,1232.8 1655.76,1254.43 1657.84,1232.8 1659.93,1211.16 1662.01,1189.53 1664.09,1167.9 1666.18,1146.26 1668.26,1124.63 1670.35,1146.26 1672.43,1167.9 1674.52,1146.26 1676.6,1124.63 1678.69,1102.99 1680.77,1081.36 1682.85,1102.99 1684.94,1124.63 1687.02,1146.26 1689.11,1124.63 1691.19,1102.99 1693.28,1081.36 1695.36,1059.73 1697.45,1038.09 1699.53,1059.73 1701.61,1081.36 1703.7,1102.99 1705.78,1081.36 1707.87,1059.73 1709.95,1081.36 1712.04,1059.73 1714.12,1038.09 1716.21,1059.73 1718.29,1081.36 1720.37,1102.99 1722.46,1081.36 1724.54,1059.73 1726.63,1038.09 1728.71,1059.73 1730.8,1081.36 1732.88,1059.73 1734.97,1038.09 1737.05,1016.46 1739.14,1038.09 1741.22,1016.46 1743.3,1038.09 1745.39,1059.73 1747.47,1081.36 1749.56,1059.73 1751.64,1081.36 1753.73,1102.99 1755.81,1081.36 1757.9,1059.73 1759.98,1081.36 1762.06,1102.99 1764.15,1081.36 1766.23,1102.99 1768.32,1124.63 1770.4,1102.99 1772.49,1124.63 1774.57,1102.99 1776.66,1081.36 1778.74,1102.99 1780.82,1081.36 1782.91,1102.99 1784.99,1124.63 1787.08,1102.99 1789.16,1124.63 1791.25,1102.99 1793.33,1081.36 1795.42,1059.73 1797.5,1038.09 1799.58,1016.46 1801.67,1038.09 1803.75,1059.73 1805.84,1081.36 1807.92,1059.73 1810.01,1081.36 1812.09,1102.99 1814.18,1124.63 1816.26,1102.99 1818.34,1081.36 1820.43,1059.73 1822.51,1038.09 1824.6,1059.73 1826.68,1081.36 1828.77,1102.99 1830.85,1081.36 1832.94,1102.99 1835.02,1124.63 1837.1,1146.26 1839.19,1124.63 1841.27,1102.99 1843.36,1124.63 1845.44,1146.26 1847.53,1124.63 1849.61,1102.99 1851.7,1124.63 1853.78,1102.99 1855.86,1124.63 1857.95,1146.26 1860.03,1124.63 1862.12,1146.26 1864.2,1124.63 1866.29,1146.26 1868.37,1167.9 1870.46,1189.53 1872.54,1167.9 1874.62,1146.26 1876.71,1167.9 1878.79,1146.26 1880.88,1167.9 1882.96,1189.53 1885.05,1167.9 1887.13,1146.26 1889.22,1124.63 1891.3,1102.99 1893.38,1124.63 1895.47,1146.26 1897.55,1167.9 1899.64,1189.53 1901.72,1167.9 1903.81,1146.26 1905.89,1124.63 1907.98,1102.99 1910.06,1081.36 1912.14,1059.73 1914.23,1081.36 1916.31,1102.99 1918.4,1124.63 1920.48,1146.26 1922.57,1167.9 1924.65,1146.26 1926.74,1167.9 1928.82,1146.26 1930.9,1124.63 1932.99,1102.99 1935.07,1081.36 1937.16,1102.99 1939.24,1081.36 1941.33,1102.99 1943.41,1081.36 1945.5,1059.73 1947.58,1038.09 1949.66,1016.46 1951.75,1038.09 1953.83,1059.73 1955.92,1038.09 1958,1016.46 1960.09,994.822 1962.17,1016.46 1964.26,1038.09 1966.34,1016.46 1968.42,994.822 1970.51,1016.46 1972.59,1038.09 1974.68,1016.46 1976.76,994.822 1978.85,973.188 1980.93,994.822 1983.02,1016.46 1985.1,1038.09 1987.18,1059.73 1989.27,1038.09 1991.35,1016.46 1993.44,994.822 1995.52,973.188 1997.61,951.554 1999.69,929.92 2001.78,908.286 2003.86,886.651 2005.94,908.286 2008.03,886.651 2010.11,908.286 2012.2,886.651 2014.28,865.017 2016.37,843.383 2018.45,865.017 2020.54,886.651 2022.62,865.017 2024.7,843.383 2026.79,821.749 2028.87,800.115 2030.96,821.749 2033.04,800.115 2035.13,821.749 2037.21,800.115 2039.3,821.749 2041.38,843.383 2043.46,821.749 2045.55,843.383 2047.63,865.017 2049.72,886.651 2051.8,865.017 2053.89,843.383 2055.97,865.017 2058.06,843.383 2060.14,821.749 2062.23,843.383 2064.31,865.017 2066.39,843.383 2068.48,865.017 2070.56,886.651 2072.65,908.286 2074.73,886.651 2076.82,865.017 2078.9,843.383 2080.99,865.017 2083.07,886.651 2085.15,908.286 2087.24,886.651 2089.32,908.286 2091.41,929.92 2093.49,951.554 2095.58,929.92 2097.66,908.286 2099.75,929.92 2101.83,951.554 2103.91,929.92 2106,951.554 2108.08,929.92 2110.17,951.554 2112.25,973.188 2114.34,994.822 2116.42,1016.46 2118.51,994.822 2120.59,1016.46 2122.67,994.822 2124.76,973.188 2126.84,994.822 2128.93,1016.46 2131.01,994.822 2133.1,1016.46 2135.18,1038.09 2137.27,1059.73 2139.35,1038.09 2141.43,1059.73 2143.52,1038.09 2145.6,1059.73 2147.69,1081.36 2149.77,1059.73 2151.86,1038.09 2153.94,1059.73 2156.03,1038.09 2158.11,1059.73 2160.19,1081.36 2162.28,1059.73 2164.36,1081.36 2166.45,1102.99 2168.53,1081.36 2170.62,1059.73 2172.7,1038.09 2174.79,1016.46 2176.87,1038.09 2178.95,1016.46 2181.04,1038.09 2183.12,1016.46 2185.21,994.822 2187.29,973.188 2189.38,951.554 2191.46,929.92 2193.55,951.554 2195.63,929.92 2197.71,951.554 2199.8,973.188 2201.88,951.554 2203.97,973.188 2206.05,994.822 2208.14,1016.46 2210.22,1038.09 2212.31,1059.73 2214.39,1038.09 2216.47,1059.73 2218.56,1038.09 2220.64,1016.46 2222.73,1038.09 2224.81,1059.73 2226.9,1081.36 2228.98,1102.99 2231.07,1081.36 2233.15,1102.99 2235.23,1081.36 2237.32,1102.99 2239.4,1124.63 2241.49,1146.26 2243.57,1167.9 2245.66,1146.26 2247.74,1167.9 2249.83,1189.53 2251.91,1167.9 2253.99,1189.53 2256.08,1211.16 2258.16,1189.53 2260.25,1211.16 2262.33,1189.53 2264.42,1211.16 2266.5,1232.8 2268.59,1254.43 2270.67,1276.07 2272.75,1297.7 2274.84,1276.07 2276.92,1297.7 2279.01,1276.07 2281.09,1297.7 2283.18,1276.07 2285.26,1297.7 2287.35,1319.34 2289.43,1340.97 2291.51,1362.6 2293.6,1384.24 "/>
</svg>
